<?xml version="1.0" encoding="utf-8"?>
<!-- Generator: Adobe Illustrator 22.0.1, SVG Export Plug-In . SVG Version: 6.00 Build 0)  -->
<svg version="1.1" id="Capa_1" xmlns="http://www.w3.org/2000/svg" xmlns:xlink="http://www.w3.org/1999/xlink" x="0px" y="0px"
	 viewBox="0 0 277.8 223.3" style="enable-background:new 0 0 277.8 223.3;" xml:space="preserve">
<style type="text/css">
	.st0{fill:url(#_Path__1_);}
	.st1{fill:url(#_Path_2_1_);}
	.st2{fill:url(#_Path_3_1_);}
	.st3{fill:url(#_Path_4_1_);}
</style>
<title>AnanaÌ-logo-vertical</title>
<linearGradient id="_Path__1_" gradientUnits="userSpaceOnUse" x1="96.605" y1="-9.0515" x2="136.485" y2="-144.9015" gradientTransform="matrix(1 0 0 -1 -37.23 34.1)">
	<stop  offset="0" style="stop-color:#FFF158"/>
	<stop  offset="1" style="stop-color:#CCB253"/>
</linearGradient>
<path id="_Path_" class="st0" d="M123.4,119.2v104.1H75.1v-95.8c0,0-7.8-101.6-75.1-124C7.8,1.2,15.9,0,24.1,0
	C78.9,0,123.4,53.4,123.4,119.2z"/>
<g id="_Group_3">
	
		<linearGradient id="_Path_2_1_" gradientUnits="userSpaceOnUse" x1="193.963" y1="53.1334" x2="179.0229" y2="-22.0466" gradientTransform="matrix(1 0 0 -1 -37.23 34.1)">
		<stop  offset="0" style="stop-color:#FFF158"/>
		<stop  offset="1" style="stop-color:#CCB253"/>
	</linearGradient>
	<path id="_Path_2" class="st1" d="M174,0c-29.9,0-56.8,15.9-75,41c15.2,20.9,24.4,48.3,24.4,78.2v3.9c2.4-19.9,15.8-100,74.6-119.6
		C190.2,1.2,182.1,0,174,0z"/>
</g>
<linearGradient id="_Path_3_1_" gradientUnits="userSpaceOnUse" x1="292.8997" y1="-199.9516" x2="288.2397" y2="-141.9516" gradientTransform="matrix(1 0 0 -1 -37.23 34.1)">
	<stop  offset="0" style="stop-color:#FFF158"/>
	<stop  offset="1" style="stop-color:#CCB253"/>
</linearGradient>
<path id="_Path_3" class="st2" d="M275.1,152.5c0,19.1-19.2,35.9-48,45.2v24.9h48V132l0,0V152.5z"/>
<linearGradient id="_Path_4_1_" gradientUnits="userSpaceOnUse" x1="253.2678" y1="-110.8906" x2="262.9078" y2="12.0294" gradientTransform="matrix(1 0 0 -1 -37.23 34.1)">
	<stop  offset="0" style="stop-color:#FFF158"/>
	<stop  offset="1" style="stop-color:#CCB253"/>
</linearGradient>
<path id="_Path_4" class="st3" d="M275.1,119.2v-4H275C273.5,60.9,240.5,16,198,3.6c-8.3,2.8-16.2,6.9-23.2,12.3
	c45.9,34.6,51.9,111.6,51.9,111.7v21.3c0,0-7.8,45-75.1,54.9c8,1,16,1.6,24.1,1.6c54.9,0,99.4-23.6,99.4-52.8L275.1,119.2
	L275.1,119.2L275.1,119.2z"/>
</svg>
